<svg xmlns="http://www.w3.org/2000/svg" width="480" height="401.597" viewBox="0 0 480 401.597">
  <defs>
    <style>
      .cls-1 {
        fill: #01383c;
        opacity: 0.22;
      }

      .cls-2 {
        fill: #4b2c27;
      }

      .cls-3 {
        fill: #f78d69;
        opacity: 0.25;
      }

      .cls-4 {
        fill: #330e01;
        opacity: 0.47;
      }

      .cls-5 {
        fill: #f8db03;
      }

      .cls-6 {
        fill: #cc050f;
      }

      .cls-10, .cls-6 {
        opacity: 0.16;
      }

      .cls-7 {
        fill: #eda87a;
      }

      .cls-8 {
        fill: #ec6f69;
      }

      .cls-9 {
        fill: #f0880d;
      }

      .cls-10 {
        fill: #890310;
      }

      .cls-11 {
        fill: #f8bb8e;
      }

      .cls-12 {
        opacity: 0.61;
      }

      .cls-13 {
        fill: none;
        stroke: #5b2602;
        stroke-linecap: round;
        stroke-linejoin: round;
        stroke-width: 3.511px;
      }

      .cls-14 {
        fill: #401215;
      }

      .cls-15 {
        fill: #fff;
      }

      .cls-16 {
        fill: #f987b6;
      }

      .cls-17 {
        fill: #3d1501;
      }

      .cls-18 {
        fill: #b2221b;
      }

      .cls-19 {
        fill: #990441;
        opacity: 0.28;
      }
    </style>
  </defs>
  <g id="Djevojcica" transform="translate(15.571 -303)">
    <path id="Path_42" data-name="Path 42" class="cls-1" d="M432.985,490.728c.346-.475.684-.963,1.025-1.451.166-.239.335-.471.5-.714q1.54-2.258,2.98-4.664l.046-.08q.688-1.152,1.345-2.334c.084-.149.164-.3.246-.453.366-.666.726-1.334,1.076-2.01.1-.2.2-.408.308-.612.32-.63.635-1.263.939-1.9.107-.226.211-.455.317-.683.289-.619.57-1.238.843-1.862.106-.244.208-.488.311-.734q.388-.915.752-1.837c.1-.255.2-.51.3-.766q.347-.909.664-1.822c.093-.262.182-.523.269-.783.2-.6.4-1.209.581-1.815.08-.264.16-.526.237-.79.175-.6.337-1.207.492-1.81.066-.262.137-.524.2-.785.147-.608.277-1.212.4-1.817.053-.253.109-.508.157-.759.117-.619.215-1.232.306-1.846.035-.235.078-.47.109-.7.086-.652.149-1.3.206-1.939.016-.193.044-.386.058-.577.06-.83.1-1.655.1-2.47.144-20.87,2.86-28.4-22.643-32.422-4.8-.766-10.579-1.391-17.578-1.966-8.709-.719-16.267-1.054-22.756-1.118-3.036-.033-5.849,0-8.421.064-12.827.339-20.342,1.768-24.1,2.754-2.312-3.235-4.564-4.943-6.6-5.711a8.55,8.55,0,0,0-8.694,1.806c.013.062.024.124.036.188-7.356-27.774-25.608-55.953-50.645-75.98a214.931,214.931,0,0,0-25.04-17.418c-.191-.113-.335-.208-.431-.257-82.171-48.233-143.118,2.154-180.3,45.773a20.1,20.1,0,0,0-13.329-1,33.064,33.064,0,0,0-4.89,1.551c-15.126,6.159-18.647,22.361-15.213,42.538-25.625,33.416-30.589,34.865-49.92,44.137-21.157,10.162-12.1,35.65-1.247,40.987,10.852,5.321,40.11-1.167,29.133,3.228-11,4.395-17.1,12.3-8.421,28.27s20.325,15.419,33.7,15.692a85.011,85.011,0,0,0,9.628-.4,20.207,20.207,0,0,0-2.09,3.9c-.368.251-.759.517-1.171.8-34.61-7.129-61.1,13.267-61.1,13.267S-22.491,603.563-10.33,643.4a80.527,80.527,0,0,0,25.12,38.384C66.645,726.128,118.6,663.231,118.6,663.231a72.282,72.282,0,0,0,6.293-41.158c2.055,1.427,4.287,2.882,6.763,4.373,33.813,20.391,37.408-10.706,44.057-12.337,2.6-.639,3.563,7,5.673,16.3,3.308,14.478,9.443,33.014,29.1,30.618,31.051-3.8,21.057-42.1,39.593-70.981,1.282.129,2.621.222,4.032.269,16.635.559,30.234-2.8,37.346-11.953a26.648,26.648,0,0,0,5.257-14.7c.7-9.428-3.548-15.021-8.31-18.312-.606-.422-1.222-.8-1.837-1.147,17.822-22.078,36.407-46.592,46.412-68.369l-.007.018c5.1,3.659,10.355,2.621,14.86-1.263a24.226,24.226,0,0,0,3.157-3.379c29.985,1.762,42.859,22.182,52.214,31.887,2.525,2.621,4.8,4.46,7.08,4.939a5.8,5.8,0,0,0,1.052.111c.1,0,.217-.013.324-.016a7.27,7.27,0,0,0,.806-.056c.127-.018.262-.051.391-.075.268-.049.535-.1.814-.178.137-.038.277-.087.415-.131.282-.089.566-.184.857-.3.138-.055.279-.117.419-.178.3-.127.606-.266.916-.42.137-.069.273-.142.411-.215.322-.171.648-.353.978-.55.133-.078.264-.158.4-.242q.516-.322,1.043-.683c.124-.086.246-.169.37-.257.371-.262.746-.541,1.123-.832.109-.082.217-.162.324-.248.406-.319.814-.655,1.223-1,.086-.073.169-.14.255-.215q.685-.59,1.376-1.236l.12-.107a64.644,64.644,0,0,0,4.62-4.826c.067-.078.133-.158.2-.235.426-.5.854-1,1.278-1.524.149-.182.3-.371.444-.555.264-.328.528-.652.79-.987.069-.091.138-.186.208-.277.289-.377.577-.763.865-1.149C432.528,491.345,432.759,491.041,432.985,490.728Z" transform="translate(0 0)"/>
    <g id="Group_157" data-name="Group 157" transform="translate(0.961 309.984)">
      <path id="Path_43" data-name="Path 43" class="cls-2" d="M293.729,405.085c-.113,13.375-7.751,29.082-16.524,40.365-7.495,9.636-15.8,16.027-20.95,14.957-2.285-.479-4.553-2.317-7.078-4.937-9.829-10.2-23.524-32.233-56.873-32.023,0,0,21.221-27.678,2.876-50.082,0,0,7.127-3.195,27.15-3.723,2.572-.064,5.385-.1,8.421-.064,6.486.064,14.045.4,22.754,1.118,7,.575,12.785,1.2,17.578,1.966C296.589,376.687,293.873,384.213,293.729,405.085Z" transform="translate(169.59 -255.372)"/>
      <path id="Path_44" data-name="Path 44" class="cls-3" d="M268.1,403.689c-.193,24.8-26.32,57.639-37.474,55.321-2.285-.479-4.553-2.317-7.078-4.937,7.83-7.112,21.172-21.478,27.4-41.324,8.884-28.364-4.842-40.893-5.5-41.484C270.958,375.292,268.242,382.818,268.1,403.689Z" transform="translate(195.221 -253.976)"/>
      <path id="Path_45" data-name="Path 45" class="cls-4" d="M277.205,445.415c-7.495,9.636-15.8,16.027-20.95,14.957-2.285-.479-4.553-2.317-7.078-4.937-9.829-10.2-23.524-32.233-56.873-32.023,0,0,21.221-27.678,2.876-50.082,0,0,7.127-3.195,27.15-3.723-3.164,2.03-6.009,7.255-6.009,19.544,0,27.643,30.425,37.408,40.749,51.981C262.265,448.466,270.415,447.843,277.205,445.415Z" transform="translate(169.59 -255.337)"/>
      <path id="Path_46" data-name="Path 46" class="cls-5" d="M199.828,428.5c-4.507,3.883-9.765,4.921-14.862,1.262,0,0,10.4-28.284,4-59.732a8.548,8.548,0,0,1,8.693-1.806c3.421,1.294,7.462,5.21,11.361,14.669C215.568,398.809,209.447,420.159,199.828,428.5Z" transform="translate(163.569 -256.911)"/>
      <path id="Path_47" data-name="Path 47" class="cls-6" d="M199.828,428.5c-4.507,3.883-9.765,4.921-14.862,1.262,0,0,10.4-28.284,4-59.732a8.548,8.548,0,0,1,8.693-1.806c-1.214,1.278-1.646,4.123.08,9.907,4.635,15.47,4.555,28.588-1.886,41.133C192.8,425.224,195.594,427.652,199.828,428.5Z" transform="translate(163.569 -256.911)"/>
      <path id="Path_48" data-name="Path 48" class="cls-2" d="M345.4,471.617c-14.3,39.007-62.29,89.728-83.959,118.922-21.685,29.18-9.619,70.375-41.883,74.323-19.655,2.4-25.792-16.14-29.1-30.618-2.108-9.3-3.067-16.939-5.673-16.3-6.648,1.631-10.244,32.728-44.057,12.337-33.813-20.374-27.134-34.565-19-48.435,5.1-8.693-2.844-2.35-14.8,2.445-7.112,2.844-15.645,5.145-23.7,3.388C61.631,583,51.484,561.84,64.252,553.051s8.6-5.114-4.779-5.385-25.009.271-33.7-15.692C17.1,516.008,23.2,508.1,34.193,503.7S15.912,505.8,5.062,500.476c-10.85-5.338-19.91-30.826,1.247-40.987s25.088-10.9,57.75-54.477c30.3-40.4,100.705-140.271,205.9-78.525.095.049.238.144.431.257a214.931,214.931,0,0,1,25.04,17.418C336.8,377.256,359.7,432.61,345.4,471.617Z" transform="translate(6.49 -306.836)"/>
      <path id="Path_49" data-name="Path 49" class="cls-4" d="M270.392,326.744s-94.33-16.076-166.638,105.083c-64.047,107.337,60.164,97.782,3.18,152.464-7.112,2.844-15.645,5.145-23.7,3.388C61.631,583,51.484,561.84,64.252,553.051s8.6-5.114-4.779-5.385-25.009.271-33.7-15.692C17.1,516.008,23.2,508.1,34.193,503.7S15.912,505.8,5.062,500.476c-10.85-5.338-19.91-30.826,1.247-40.987s25.088-10.9,57.75-54.477c30.3-40.4,100.705-140.271,205.9-78.525C270.055,326.537,270.2,326.631,270.392,326.744Z" transform="translate(6.49 -306.836)"/>
      <path id="Path_50" data-name="Path 50" class="cls-3" d="M256.64,462.645c-14.3,39.007-62.29,89.728-83.959,118.922-21.685,29.18-9.619,70.375-41.883,74.323-19.655,2.4-25.792-16.14-29.1-30.618,6.7,9.4,19.288,27.416,33.829,20.944,21.652-9.621-5.465-32.7,47.414-95.934s71.928-79.568,61.045-141.09c-10.211-57.688-56.78-87.873-62.356-91.421a214.931,214.931,0,0,1,25.04,17.418C248.042,368.284,270.941,423.638,256.64,462.645Z" transform="translate(95.252 -297.864)"/>
      <path id="Path_51" data-name="Path 51" class="cls-7" d="M197.3,460.327a26.635,26.635,0,0,1-5.257,14.7c-7.111,9.157-20.709,12.512-37.345,11.953-23.635-.783-28.492-13.775-28.956-19.9-.448-6.12,51.5-29.626,51.5-29.626a28.85,28.85,0,0,1,11.744,4.555C193.752,445.306,198,450.9,197.3,460.327Z" transform="translate(114.976 -199.667)"/>
      <path id="Path_52" data-name="Path 52" class="cls-7" d="M74.315,358.8s-15.15,54.972-21.27,55.467c-6.12.512-19.7-2.285-24.161-25.5-4.06-21.174-.816-38.3,14.846-44.679a33.282,33.282,0,0,1,4.89-1.551c11.68-2.732,18.5,3.373,22.131,8.869A28.817,28.817,0,0,1,74.315,358.8Z" transform="translate(34.203 -278.104)"/>
      <g id="Group_146" data-name="Group 146" transform="translate(76.102 88.293)">
        <path id="Path_53" data-name="Path 53" class="cls-8" d="M151.864,445.882s14.906-.839,13.8,11.8-25.788,12.06-30.083-2.758S151.864,445.882,151.864,445.882Z" transform="translate(46.465 -281.958)"/>
        <path id="Path_54" data-name="Path 54" class="cls-8" d="M56.243,367.552s-1.484-14.855-13.8-11.8-7.913,27.347,7.393,29.289S56.243,367.552,56.243,367.552Z" transform="translate(-35.315 -355.337)"/>
      </g>
      <path id="Path_55" data-name="Path 55" class="cls-6" d="M192.043,475.029c-7.111,9.157-20.709,12.512-37.345,11.953-23.635-.783-28.492-13.775-28.956-19.9-.448-6.12,51.5-29.626,51.5-29.626a28.85,28.85,0,0,1,11.744,4.555c-2.044,5.767-8.931,18.1-31.048,24.592C130.537,474.63,167.418,494.3,192.043,475.029Z" transform="translate(114.976 -199.667)"/>
      <path id="Path_56" data-name="Path 56" class="cls-6" d="M74.315,357.8s-15.15,54.972-21.27,55.467c-6.12.512-19.7-2.285-24.161-25.5-4.06-21.174-.816-38.3,14.846-44.679-16.22,23.81.7,65.709,9.923,37.234,5.208-16.109,11.873-25.042,17.1-29.915A28.817,28.817,0,0,1,74.315,357.8Z" transform="translate(34.203 -277.101)"/>
      <path id="Path_57" data-name="Path 57" class="cls-9" d="M127.2,557.278s-51.95,62.9-103.8,18.552A80.514,80.514,0,0,1-1.72,537.446c-12.162-39.837,5.991-82.007,5.991-82.007s48.5-37.361,100,6.7a88.519,88.519,0,0,1,24.354,35.075C135.658,515.459,136.936,536.823,127.2,557.278Z" transform="translate(6.961 -197.047)"/>
      <path id="Path_58" data-name="Path 58" class="cls-10" d="M123.481,495.914s.528,17.595-17.018,16-16.156-16-16.156-16-14.174,10.468-26.16-12.335C54.544,465.3,13.109,498.6-1.72,537.446c-12.162-39.837,5.991-82.007,5.991-82.007s48.5-37.361,100,6.7a88.519,88.519,0,0,1,24.354,35.075Z" transform="translate(6.961 -197.047)"/>
      <path id="Path_59" data-name="Path 59" class="cls-5" d="M62.918,444.7s-16.04-18.419-26.48-3.033,8.744,23.773,8.744,23.773S30.439,476.7,41.14,489.794s22-.892,22-.892S60.5,507.379,75,508.827s12.019-17.893,12.019-17.893,12.685,8.219,18.9-2.891-11.607-21.094-11.607-21.094Z" transform="translate(39.156 -201.245)"/>
      <path id="Path_60" data-name="Path 60" class="cls-7" d="M92.375,462.662l-5.418,6.328L73.55,484.665c-32.646-.335-31.927-27.325-31.927-27.325l20.1-23.506C66.055,441.776,92.375,462.662,92.375,462.662Z" transform="translate(45.962 -202.641)"/>
      <path id="Path_61" data-name="Path 61" class="cls-6" d="M73.025,484.665C40.377,484.331,41.1,457.341,41.1,457.341l20.1-23.506c4.331,7.941,30.649,28.827,30.649,28.827l-5.418,6.328A103.13,103.13,0,0,1,69.19,457.437C55.591,446.09,35.936,478.977,73.025,484.665Z" transform="translate(45.531 -202.641)"/>
      <path id="Path_62" data-name="Path 62" class="cls-11" d="M154.615,360.328a4.6,4.6,0,0,1-.222,1.566Z" transform="translate(138.485 -262.949)"/>
      <path id="Path_63" data-name="Path 63" class="cls-11" d="M277.417,482.493a106.222,106.222,0,0,1-6.535,12.128c-12.434,20.247-43.29,58.933-98.309,60.963-21.907.8-39.358.144-53.563-2.188C84.8,547.818,69.534,532.67,56.655,505.44c-18.234-38.528-42.507-93.689,39.87-171.464,0,0,20.087,7.478,36.465,22.355,16.38,14.895,17.9,13.12,64.8-14.893-.766.9-25.248,29.515-31.257,36.531-6.088,7.143,42.682,47.077,50.384,42.2,7.191-4.571,29.915-28.173,32.457-36.658-.943,6.375-4.762,30.489-9.477,38.672-5.432,9.459-5.576,13.743,13.2,28.923S277.417,482.493,277.417,482.493Z" transform="translate(43.505 -284.57)"/>
      <path id="Path_64" data-name="Path 64" class="cls-6" d="M154.615,360.328a4.6,4.6,0,0,1-.222,1.566Z" transform="translate(138.485 -262.949)"/>
      <path id="Path_65" data-name="Path 65" class="cls-6" d="M277.417,482.493a106.222,106.222,0,0,1-6.535,12.128c-7.287-16.107-23.123-46.66-41.468-54.539-25.233-10.835-61.635-44.936-71.383-52.3s-22.834-37.106-53.5.446c-30.649,37.538-54.317,70.839-21.286,130.637,8.838,15.994,21.685,26.988,35.764,34.532C84.8,547.818,69.534,532.67,56.655,505.44c-18.234-38.528-42.507-93.689,39.87-171.464,0,0,20.087,7.478,36.465,22.355,16.38,14.895,17.9,13.12,64.8-14.893-.766.9-25.248,29.515-31.257,36.531-6.088,7.143,42.682,47.077,50.384,42.2,7.191-4.571,29.915-28.173,32.457-36.658-.943,6.375-4.762,30.489-9.477,38.672-5.432,9.459-5.576,13.743,13.2,28.923S277.417,482.493,277.417,482.493Z" transform="translate(43.505 -284.57)"/>
      <g id="Group_147" data-name="Group 147" class="cls-12" transform="translate(83.215 124.99)">
        <path id="Path_66" data-name="Path 66" class="cls-8" d="M143.751,468.542a23.98,23.98,0,1,1-2.64-33.809A23.98,23.98,0,0,1,143.751,468.542Z" transform="translate(11.911 -331.618)"/>
        <path id="Path_67" data-name="Path 67" class="cls-8" d="M81.426,415.062a23.98,23.98,0,1,1-2.638-33.811A23.98,23.98,0,0,1,81.426,415.062Z" transform="translate(-39.221 -375.495)"/>
      </g>
      <g id="Group_148" data-name="Group 148" transform="translate(110.251 94.612)">
        <path id="Path_68" data-name="Path 68" class="cls-13" d="M115.554,427.176s18.052-27.793,41.346-9.637-2.618,42.757-2.618,42.757" transform="translate(-3.631 -315.672)"/>
        <path id="Path_69" data-name="Path 69" class="cls-13" d="M54.073,374.6s18.053-27.791,41.346-9.636S92.8,407.718,92.8,407.718" transform="translate(-54.073 -358.808)"/>
      </g>
      <path id="Path_70" data-name="Path 70" class="cls-8" d="M117.5,419.327c-4.107,5.658-19.4,4.859-22.692.257-11.361-15.883-6.375-34.548,14.351-16.843h.016l.015.016C118.525,410.731,119.836,416.085,117.5,419.327Z" transform="translate(84.721 -234.045)"/>
      <path id="Path_71" data-name="Path 71" class="cls-14" d="M134.45,454.157c-.943,12.13-18.649,16.956-38.113,6.457a67.581,67.581,0,0,1-15-11.154,72.23,72.23,0,0,1-10.675-12.9v-.016c-10.946-17.194-7.766-32.12,4.939-33.381a12.988,12.988,0,0,1,1.933-.047c5.5.224,10.083,3.834,14.269,8.421,2.367,2.6,4.6,5.529,6.792,8.341,4.218,5.4,8.31,10.418,12.88,12.017,10.786,3.739,21.973,10.85,22.932,20.023A10.507,10.507,0,0,1,134.45,454.157Z" transform="translate(64.322 -227.855)"/>
      <g id="Group_150" data-name="Group 150" transform="translate(137.699 175.264)">
        <g id="Group_149" data-name="Group 149">
          <path id="Path_72" data-name="Path 72" class="cls-15" d="M87.573,411.533c-5.48,7.926-12.144,11.585-16.921,3.978-3.453-5.529-.257-9.891,2.652-12.4C78.8,403.336,83.387,406.946,87.573,411.533Z" transform="translate(-69.15 -403.112)"/>
          <path id="Path_73" data-name="Path 73" class="cls-15" d="M120.817,444.36c-8.278,9.011-22.2-4.347-37.905-17.163-4.826-3.93-1.262-10.482,2.094-14.877,4.218,5.4,8.31,10.418,12.88,12.017C108.671,428.076,119.857,435.187,120.817,444.36Z" transform="translate(-59.791 -395.557)"/>
        </g>
      </g>
      <path id="Path_74" data-name="Path 74" class="cls-16" d="M93.336,445.749a67.581,67.581,0,0,1-15-11.154,72.23,72.23,0,0,1-10.675-12.9v-.016s12.929-3.563,13.919,9.109C81.576,430.792,96.517,430.425,93.336,445.749Z" transform="translate(67.323 -212.99)"/>
      <g id="Group_154" data-name="Group 154" transform="translate(90.764 65.021)">
        <g id="Group_151" data-name="Group 151">
          <path id="Path_75" data-name="Path 75" class="cls-17" d="M96.235,448.362a52.906,52.906,0,1,1,40.263-18.5h0A52.831,52.831,0,0,1,96.235,448.362Zm.073-101.016a48.123,48.123,0,1,0,36.547,79.4h0a48.111,48.111,0,0,0-36.547-79.4Z" transform="translate(-43.369 -342.553)"/>
        </g>
        <g id="Group_152" data-name="Group 152" transform="translate(108.213 92.54)">
          <path id="Path_76" data-name="Path 76" class="cls-17" d="M155.658,499.248a52.932,52.932,0,1,1,40.31-18.534h0a52.588,52.588,0,0,1-36.1,18.37Q157.752,499.248,155.658,499.248Zm.162-101.067q-1.9,0-3.823.149A48.133,48.133,0,1,0,192.324,477.6h0a48.134,48.134,0,0,0-36.5-79.419Z" transform="translate(-102.812 -393.387)"/>
        </g>
        <g id="Group_153" data-name="Group 153" transform="translate(95.713 77.287)">
          <path id="Path_77" data-name="Path 77" class="cls-17" d="M125.97,415.678c-7.482-25.872-29-25.887-29.939-25.874l-.086-4.8c.238-.011,26.094-.171,34.629,29.336Z" transform="translate(-95.945 -385.009)"/>
        </g>
      </g>
      <g id="Group_155" data-name="Group 155" class="cls-12" transform="translate(212.087 217.865)">
        <path id="Path_78" data-name="Path 78" class="cls-18" d="M113.978,430.23a2.253,2.253,0,1,1-.248-3.177A2.252,2.252,0,0,1,113.978,430.23Z" transform="translate(-110.013 -426.513)"/>
        <path id="Path_79" data-name="Path 79" class="cls-18" d="M115.726,438.248a2.253,2.253,0,1,1-.248-3.177A2.254,2.254,0,0,1,115.726,438.248Z" transform="translate(-108.579 -419.935)"/>
        <path id="Path_80" data-name="Path 80" class="cls-18" d="M123.007,438.515a2.252,2.252,0,1,1-.248-3.177A2.253,2.253,0,0,1,123.007,438.515Z" transform="translate(-102.605 -419.716)"/>
        <path id="Path_81" data-name="Path 81" class="cls-18" d="M126.534,445.861a2.252,2.252,0,1,1-.248-3.175A2.253,2.253,0,0,1,126.534,445.861Z" transform="translate(-99.712 -413.687)"/>
        <path id="Path_82" data-name="Path 82" class="cls-18" d="M135.261,445.879a2.253,2.253,0,1,1-.248-3.177A2.254,2.254,0,0,1,135.261,445.879Z" transform="translate(-92.552 -413.674)"/>
      </g>
      <g id="Group_156" data-name="Group 156" class="cls-12" transform="translate(97.273 117.278)">
        <path id="Path_83" data-name="Path 83" class="cls-18" d="M59.782,386.075a2.253,2.253,0,1,1-.249-3.177A2.254,2.254,0,0,1,59.782,386.075Z" transform="translate(-39.664 -362.153)"/>
        <path id="Path_84" data-name="Path 84" class="cls-18" d="M60.742,392.855a2.252,2.252,0,1,1-.248-3.177A2.251,2.251,0,0,1,60.742,392.855Z" transform="translate(-38.877 -356.59)"/>
        <path id="Path_85" data-name="Path 85" class="cls-18" d="M69.131,393.506a2.253,2.253,0,1,1-.248-3.177A2.252,2.252,0,0,1,69.131,393.506Z" transform="translate(-31.994 -356.056)"/>
        <path id="Path_86" data-name="Path 86" class="cls-18" d="M52.35,374.976A2.253,2.253,0,1,1,52.1,371.8,2.252,2.252,0,0,1,52.35,374.976Z" transform="translate(-45.762 -371.259)"/>
        <path id="Path_87" data-name="Path 87" class="cls-18" d="M50.909,382.818a2.253,2.253,0,1,1-.249-3.177A2.254,2.254,0,0,1,50.909,382.818Z" transform="translate(-46.944 -364.825)"/>
      </g>
      <path id="Path_88" data-name="Path 88" class="cls-19" d="M117.5,419.327c-4.107,5.658-19.4,4.859-22.692.257-11.361-15.883-6.375-34.548,14.351-16.843-.783-.368-13.167-6.137-10.915,6.7C99.828,418.433,105.964,419.952,117.5,419.327Z" transform="translate(84.721 -234.045)"/>
    </g>
  </g>
</svg>
