<svg xmlns="http://www.w3.org/2000/svg" width="392.532" height="389.333" viewBox="0 0 392.532 389.333">
  <defs>
    <style>
      .cls-1 {
        fill: #01383c;
        opacity: 0.22;
      }

      .cls-2 {
        fill: #4b2c27;
      }

      .cls-3 {
        fill: #330e01;
        opacity: 0.47;
      }

      .cls-4 {
        fill: #f78d69;
      }

      .cls-16, .cls-4 {
        opacity: 0.25;
      }

      .cls-5 {
        fill: #e43b3e;
      }

      .cls-6 {
        fill: #eda87a;
      }

      .cls-7 {
        fill: #ec6f69;
      }

      .cls-8 {
        fill: #cc050f;
      }

      .cls-15, .cls-8 {
        opacity: 0.16;
      }

      .cls-9 {
        fill: #f8bb8e;
      }

      .cls-10 {
        opacity: 0.53;
      }

      .cls-11 {
        fill: #d15112;
      }

      .cls-12 {
        fill: none;
        stroke: #5b2602;
        stroke-linecap: round;
        stroke-linejoin: round;
        stroke-width: 3.686px;
      }

      .cls-13 {
        opacity: 0.48;
      }

      .cls-14 {
        fill: #b2221b;
      }

      .cls-15 {
        fill: #890310;
      }

      .cls-16 {
        fill: #edf469;
      }

      .cls-17 {
        fill: #990441;
        opacity: 0.28;
      }
    </style>
  </defs>
  <g id="Djecak" transform="translate(-302.997 -281.706)">
    <path id="Path_89" data-name="Path 89" class="cls-1" d="M668.3,542.832c-4.59-2.145-10.217-4.792-16.611-7.34l0,0q-1.128-.451-2.289-.893c-.115-.045-.234-.089-.351-.135q-1-.38-2.028-.755l-.494-.18q-1-.361-2.01-.713l-.494-.171q-1.1-.38-2.231-.745l-.3-.1q-2.582-.835-5.272-1.59c-.184-.05-.369-.1-.552-.148-.687-.19-1.377-.373-2.075-.552-.284-.073-.573-.143-.859-.214q-.908-.227-1.825-.44-.487-.112-.976-.221c-.589-.131-1.182-.257-1.776-.38q-.5-.1-1.01-.2-.921-.18-1.853-.344c-.315-.057-.628-.115-.945-.169q-1.1-.185-2.205-.344c-.206-.031-.409-.065-.615-.094q-1.427-.2-2.869-.362c-.193-.021-.388-.036-.581-.057-.765-.08-1.533-.153-2.3-.214-.317-.026-.635-.044-.953-.067-.658-.045-1.315-.088-1.976-.119q-.524-.024-1.051-.041c-.645-.023-1.292-.041-1.94-.049q-.521-.007-1.044-.008-1.013,0-2.035.024c-.317.007-.633.013-.952.024-.786.026-1.575.068-2.367.119-.206.013-.412.021-.619.036q-3.1.222-6.231.7l-.313.052c-.713.112-1.426.226-2.139.359-.179.032-.359.078-.537.114-.49.1-.981.208-1.471.313-.6.128-1.192.252-1.791.4-.581.141-1.166.3-1.749.46-.536.143-1.073.278-1.611.435-.588.172-1.177.369-1.765.555-4.107-8.1-19.042-10.191-35.746,3.128-.14.114-.284.245-.424.36l-4.245-4.011-3.569-3.376c10.215-14.111,16.357-28.385,19.343-42.282a103.11,103.11,0,0,0-4.11-56.807c12.6-1.194,33.356-17.138,20.825-37.695a43.4,43.4,0,0,0-6.091-7.646c-15.129-15.355-26.607-12.227-33.955-6.105a36.939,36.939,0,0,0-7.749,9.265c-1.073-1.031-2.15-2.035-3.234-2.981-1.776-1.547-3.568-2.967-5.36-4.275a30.163,30.163,0,0,1,8.488-1.47S472.6,306.631,410.315,327.326l.015-.015c.373-.823,15.892-34.4,6.914-38.1-9.1-3.725-21.251,25.546-18.781,42.439,0,0-40.4-17.837-44.086-6.748s33.8,13.513,33.8,13.513-24.242-1.271-50.131,31.307v.015c-8.783,11.043-17.748,25.963-26.023,46.137-32.682,79.731,32.279,137.285,53.408,143.675,0,0,.718-3.2,2.14-8.277v0c2.483,2.523,5.125,5.026,7.914,7.465-.3-.1-.476-.162-.476-.162a36.765,36.765,0,0,0-4.581,2.933c-3.246,2.41-7.437,6.226-9.847,11.24-3.606,7.481-3.187,17.612,10.4,29.584,27.471,24.188,46.858-7.5,44.245-20.421,29.477,9.41,65.913,4.816,105.858-33.377l8.244,7.8c-8.866,14.345-9.325,25.5.624,32.607a9.368,9.368,0,0,0,4.409,1.664c-1.3,37.989,29.86,75.958,29.86,75.958a144.419,144.419,0,0,0,33.656-7.109c60.291-20.981,69.57-77.83,70.588-103.6A107.321,107.321,0,0,0,668.3,542.832Z" transform="translate(0 4.479)"/>
    <g id="Group_165" data-name="Group 165" transform="translate(319.211 281.706)">
      <path id="Path_90" data-name="Path 90" class="cls-2" d="M589.592,457.515c-1.018,25.77,36.91,85.36-23.382,106.341-9.8,3.412-68.173,3.14-80.863,4.368,0,0-56.836-69.227-13.812-114.255,9.683-10.131,19.783-16.746,29.884-20.786a73.912,73.912,0,0,1,13.857-4.025c29.914-5.583,58.228,7.9,74.151,15.338A107.573,107.573,0,0,1,589.592,457.515Z" transform="translate(-224.119 -190.551)"/>
      <path id="Path_91" data-name="Path 91" class="cls-3" d="M519,560.609a144.424,144.424,0,0,1-33.656,7.107s-56.836-69.227-13.812-114.255c9.683-10.131,19.783-16.746,29.884-20.786a73.912,73.912,0,0,1,13.857-4.025c.539,4.519.149,10.774-2.9,18.735-6.9,18.018,1.362,41.543,1.541,42.051-.643-.39-18.765-11.464-29.016,6.135C476.4,510.163,494.687,545.12,519,560.609Z" transform="translate(-224.119 -190.044)"/>
      <path id="Path_92" data-name="Path 92" class="cls-4" d="M571.928,457.514c-46.78-31.964-82.127-18.362-82.127-18.362a38.825,38.825,0,0,1-6.045-5.971c34.778-13.9,69.63,2.739,88.008,11.313A107.573,107.573,0,0,1,571.928,457.514Z" transform="translate(-206.455 -190.55)"/>
      <path id="Path_93" data-name="Path 93" class="cls-5" d="M510.132,444.3c-9.189,17.972-2.53,38.788-2.275,39.565,0,.016,0,.016.015.031-15.114-12.346-39.642,16.865-52.286,7.81-12.646-9.038-8.486-24.6,8.4-44.953a76.8,76.8,0,0,1,11.134-11.089C498.384,417.109,518.227,428.467,510.132,444.3Z" transform="translate(-228.625 -191.657)"/>
      <path id="Path_94" data-name="Path 94" class="cls-6" d="M473.9,387.22c-10.162-6.7-22.507-37.786-22.507-37.786a38.876,38.876,0,0,1,9.517-12.555c7.348-6.12,18.826-9.248,33.955,6.105a43.52,43.52,0,0,1,6.091,7.646C515.978,375.278,483.145,393.311,473.9,387.22Z" transform="translate(-226.645 -250.433)"/>
      <path id="Path_95" data-name="Path 95" class="cls-6" d="M359.59,491.547c-13.588-11.971-14.007-22.1-10.4-29.584,2.408-5.013,6.6-8.83,9.847-11.238a36.6,36.6,0,0,1,4.579-2.934s31.724,10.6,38.982,20.367S389.518,517.9,359.59,491.547Z" transform="translate(-291.599 -178.104)"/>
      <path id="Path_96" data-name="Path 96" class="cls-7" d="M458.115,352.893s12.677-24,24.438-6.086c10.8,16.456-7.75,25.671-14.713,20.543S458.115,352.893,458.115,352.893Z" transform="translate(-222.45 -245.24)"/>
      <path id="Path_97" data-name="Path 97" class="cls-8" d="M473.9,385.284c-10.162-6.7-22.507-37.786-22.507-37.786a38.876,38.876,0,0,1,9.517-12.555,141.225,141.225,0,0,1,18.542,29.436c7.2,15.952,17.9.749,21.5-15.684C515.978,373.342,483.145,391.375,473.9,385.284Z" transform="translate(-226.645 -248.498)"/>
      <path id="Path_98" data-name="Path 98" class="cls-7" d="M367.592,454.208s-23.254,14-4.711,24.74c17.034,9.866,25.2-9.173,19.689-15.837S367.592,454.208,367.592,454.208Z" transform="translate(-286.332 -174.101)"/>
      <path id="Path_99" data-name="Path 99" class="cls-8" d="M359.59,491.547c-13.588-11.971-14.007-22.1-10.4-29.584,20.845,52.241,55.578,16.222,38.354,10.43-9.743-3.277-20.651-13.287-28.507-21.668a36.6,36.6,0,0,1,4.579-2.934s31.724,10.6,38.982,20.367S389.518,517.9,359.59,491.547Z" transform="translate(-291.599 -178.104)"/>
      <path id="Path_100" data-name="Path 100" class="cls-6" d="M491.953,451.79c-2,25.276-20.83,22.043-20.83,22.043l-26.8-25.349,17.464-25.216,11.089,10.49Z" transform="translate(-231.054 -193.401)"/>
      <path id="Path_101" data-name="Path 101" class="cls-8" d="M491.953,451.79c-2,25.276-20.83,22.043-20.83,22.043l-26.8-25.349,17.464-25.216,11.089,10.49a33.664,33.664,0,0,1-6.464,14.741C460.453,456,483.484,475.778,491.953,451.79Z" transform="translate(-231.054 -193.401)"/>
      <path id="Path_102" data-name="Path 102" class="cls-9" d="M557.112,451.36c-4.025,18.735-13.768,38.159-31.531,56.94C456.294,581.582,396.66,552.162,364.1,519.045c-35.555-36.154-44.429-94.8,3.921-156.2s98.483-39.492,136.269-25.11A63.432,63.432,0,0,1,522.8,349.391C545.693,369.354,566.3,408.56,557.112,451.36Z" transform="translate(-299.519 -256.66)"/>
      <g id="Group_160" data-name="Group 160" class="cls-10" transform="translate(114.072 134.311)">
        <g id="Group_159" data-name="Group 159">
          <circle id="Ellipse_2" data-name="Ellipse 2" class="cls-7" cx="25.387" cy="25.387" r="25.387" transform="matrix(0.928, -0.373, 0.373, 0.928, 0, 121.973)"/>
          <circle id="Ellipse_3" data-name="Ellipse 3" class="cls-7" cx="25.387" cy="25.387" r="25.387" transform="matrix(0.623, -0.783, 0.783, 0.623, 83.994, 39.732)"/>
        </g>
      </g>
      <path id="Path_103" data-name="Path 103" class="cls-8" d="M557.112,451.36c-4.025,18.735-13.768,38.159-31.531,56.94C456.294,581.582,396.66,552.162,364.1,519.045c-35.555-36.154-44.429-94.8,3.921-156.2s98.483-39.492,136.269-25.11A63.432,63.432,0,0,1,522.8,349.391c-20.473,5.641-59.619,27.609-88.412,65.768-37.157,49.22-3.472,77.578,34.554,99.815C499.272,532.708,538.7,487.634,557.112,451.36Z" transform="translate(-299.519 -256.66)"/>
      <path id="Path_104" data-name="Path 104" class="cls-11" d="M539.389,368.691a33.512,33.512,0,0,0-10.34,2.035c-12.466,4.085-27.147,12.99-27.147,12.99-27.056-21.7-63.929-20.668-53.394-18.467s43.082,25.2,43.082,25.2c-10.8,7.257-39.447,33.565-39.447,33.565-29.584-23.121-53.423-19.469-45.3-16.641s34.613,26.906,34.613,26.906c-4.339,4.085-13.767,14.8-22.178,24.587-8.53,9.936-16.012,18.885-16.012,18.885-7.064-2.8-38.383-34.343-37.651-25.888.749,8.47,32.159,44,32.159,44-14.815,22.866-22.356,56.506-22.356,56.506-21.13-6.39-86.092-63.943-53.41-143.675,8.276-20.172,17.24-35.092,26.025-46.137v-.015c25.888-32.578,50.131-31.305,50.131-31.305s-37.487-2.441-33.806-13.513c3.681-11.089,44.086,6.748,44.086,6.748-2.47-16.9,9.683-46.166,18.781-42.439,8.978,3.7-6.539,37.276-6.914,38.1l-.015.016C482.582,299.449,539.389,368.691,539.389,368.691Z" transform="translate(-312.982 -281.706)"/>
      <g id="Group_161" data-name="Group 161" transform="translate(89.617 115.88)">
        <path id="Path_105" data-name="Path 105" class="cls-12" d="M386.392,461.627s-31.817-19.409-11.362-40.83c19.578-20.5,40.155,8.853,40.155,8.853" transform="translate(-368.172 -315.36)"/>
        <path id="Path_106" data-name="Path 106" class="cls-12" d="M443.557,401.175s-31.818-19.411-11.363-40.832c19.58-20.5,40.156,8.855,40.156,8.855" transform="translate(-332.514 -353.07)"/>
      </g>
      <path id="Path_107" data-name="Path 107" class="cls-7" d="M429.737,407.108c-.643,2.963-1.871,5.462-3.472,6.5-15.4,9.876-32.638,4.353-15.069-14.247a45.257,45.257,0,0,1,3.277-3.187C428.465,383.734,431.848,397.755,429.737,407.108Z" transform="translate(-256.336 -213.366)"/>
      <path id="Path_108" data-name="Path 108" class="cls-12" d="M409.157,443.181s30.654-9.837,44.091-46.627" transform="translate(-252.989 -210.065)"/>
      <g id="Group_163" data-name="Group 163" class="cls-13" transform="translate(107.994 242.214)">
        <g id="Group_162" data-name="Group 162">
          <path id="Path_109" data-name="Path 109" class="cls-14" d="M397.122,442.175a2.386,2.386,0,1,1-3.373.094A2.386,2.386,0,0,1,397.122,442.175Z" transform="translate(-371.002 -424.228)"/>
          <path id="Path_110" data-name="Path 110" class="cls-14" d="M405.224,441.438a2.387,2.387,0,1,1-3.374.094A2.387,2.387,0,0,1,405.224,441.438Z" transform="translate(-365.949 -424.688)"/>
          <path id="Path_111" data-name="Path 111" class="cls-14" d="M406.493,431.523a2.387,2.387,0,1,1-3.374.094A2.386,2.386,0,0,1,406.493,431.523Z" transform="translate(-365.157 -430.872)"/>
          <path id="Path_112" data-name="Path 112" class="cls-14" d="M383.516,450.331a2.386,2.386,0,1,1-3.374.094A2.386,2.386,0,0,1,383.516,450.331Z" transform="translate(-379.49 -419.139)"/>
          <path id="Path_113" data-name="Path 113" class="cls-14" d="M392.734,452.506a2.387,2.387,0,1,1-3.374.1A2.389,2.389,0,0,1,392.734,452.506Z" transform="translate(-373.74 -417.783)"/>
        </g>
      </g>
      <g id="Group_164" data-name="Group 164" class="cls-13" transform="translate(208.866 136.034)">
        <path id="Path_114" data-name="Path 114" class="cls-14" d="M452.468,383.644a2.386,2.386,0,1,0-.094-3.373A2.386,2.386,0,0,0,452.468,383.644Z" transform="translate(-435.304 -356.723)"/>
        <path id="Path_115" data-name="Path 115" class="cls-14" d="M452.185,391.773a2.386,2.386,0,1,0-.094-3.373A2.384,2.384,0,0,0,452.185,391.773Z" transform="translate(-435.481 -351.652)"/>
        <path id="Path_116" data-name="Path 116" class="cls-14" d="M442.358,393.6a2.386,2.386,0,1,0-.094-3.374A2.387,2.387,0,0,0,442.358,393.6Z" transform="translate(-441.611 -350.516)"/>
        <path id="Path_117" data-name="Path 117" class="cls-14" d="M459.852,369.6a2.387,2.387,0,1,0-.094-3.374A2.388,2.388,0,0,0,459.852,369.6Z" transform="translate(-430.698 -365.482)"/>
        <path id="Path_118" data-name="Path 118" class="cls-14" d="M462.539,378.684a2.387,2.387,0,1,0-.094-3.374A2.386,2.386,0,0,0,462.539,378.684Z" transform="translate(-429.022 -359.817)"/>
      </g>
      <path id="Path_119" data-name="Path 119" class="cls-15" d="M365.619,420.806c.749,8.47,32.159,44,32.159,44-14.815,22.866-22.356,56.506-22.356,56.506-21.13-6.39-86.092-63.943-53.41-143.675,8.276-20.172,17.24-35.092,26.025-46.137,0,0-20.278,56.552,71.246,96.314-8.53,9.936-16.012,18.885-16.012,18.885C396.206,443.9,364.886,412.351,365.619,420.806Z" transform="translate(-312.982 -250.648)"/>
      <path id="Path_120" data-name="Path 120" class="cls-16" d="M498.162,355.407a33.511,33.511,0,0,0-10.34,2.035c-45.254-56.177-108.749-50.58-108.749-50.58C441.355,286.166,498.162,355.407,498.162,355.407Z" transform="translate(-271.755 -268.423)"/>
      <path id="Path_121" data-name="Path 121" class="cls-16" d="M499.835,444.3c-9.189,17.972-2.53,38.788-2.275,39.565-21.954-26.2-.255-33.385-7.827-45.223s-24.992-.809-24.992-.809a11.818,11.818,0,0,1,.076-2.169C488.087,417.109,507.93,428.467,499.835,444.3Z" transform="translate(-218.328 -191.657)"/>
      <path id="Path_122" data-name="Path 122" class="cls-17" d="M429.737,405.224c-.643,2.963-1.871,5.462-3.472,6.5-15.4,9.876-32.638,4.353-15.069-14.247a45.257,45.257,0,0,1,3.277-3.187l2.588.315s-10.175,7.392-.479,12.255C420.863,408.994,425.682,407.542,429.737,405.224Z" transform="translate(-256.336 -211.481)"/>
    </g>
  </g>
</svg>
